<svg xmlns="http://www.w3.org/2000/svg" xmlns:xlink="http://www.w3.org/1999/xlink" width="375.77" height="352.09" viewBox="115.19578250233793 188.77120804649658 379.7727947043891 356.0901700756357"><defs><path id="a" d="M297.46 195.55s-3.05-4.56-21.17-5.75c-10.97-.71-20.74 11.06-16.57 13.36 8.94-2.85 17.96-3.81 17.96-3.81s-17.96 4.78-18.18 6.69c-.22 1.9.22 7.88 9.32 7.39 9.07-.48 21.19-7.39 28.64-17.88"/><path id="b" d="M241.13 190.28s-2.1.25-2.8 1.19c-.69.95-3.03 2.4-5.35 3.35-2.33.96-12.79 6.44-12.55 13.83.23 7.42 6.73 5.97 9.76 3.12 3.01-2.88 5.82-6.92 6.04-8.36 0 0-.22 4.05-5.58 9.08 0 0 .23 2.62 3.48 2.13 3.27-.47 8.1-2.77 8.68-12.33.22-3.83-.53-10.09-1.68-12.01"/><path id="c" d="M201.11 204.43s-1.38.69-1.73 2.09c-.34 1.4-2.27 4.1-4.39 6.26-2.16 2.15-10.6 12.22-7.69 20.47 2.8 7.88 10.31 5.36 12.26-.39 1.61-4.8 3.29-10.42 2.91-12.13 0 0 1.59 4.63-2.08 12.69 0 0 1.46 2.82 4.83.72 3.39-2.08 7.42-6.3 3.75-17.19-1.5-4.33-5.72-10.96-7.86-12.52"/><path id="d" d="M196.51 298.29s.98 1.59-.18 3.02c-1.14 1.42-3.92 5.14-4.46 9.09-.58 3.96-5.78 18.31-16.43 21.49-10.14 3.03-12.03-6.1-7.87-13.6 2.54-4.53 10.38-11.13 12.38-12 0 0-8.53 3.59-12.71 10.39 0 0-4.07 2.68-4.54-2.55-.49-5.22.4-11.89 14.32-16.26 5.51-1.73 16.25-.7 19.49.42"/><path id="e" d="M198.83 385.06s1.48.29 1.56 2.35c.09 2.04-.14 7.67 2.25 11.35 2.37 3.67 6.49 23.94.03 34.64-6.19 10.23-14.86 4.01-16.93-4.47-1.38-5.58 2.63-21.37 3.68-23.64 0 0-6.49 8.8-5.77 20.96 0 0-1.25 4.11-6.48-1.28-3.97-4.1-4.52-15.2 2.1-24.34 3.84-5.28 15.88-12.36 19.56-15.57"/><path id="f" d="M225.53 422.83s1.79 1.31 2.1 3.42c.52 3.39 2.56 7.64 5.23 11.27 3.31 4.47 13.7 21.8 6.65 32.59-5.79 8.76-11.18 6.25-15.37 1.94-3.36-3.45-4.92-24.3-3.84-26.65 0 0-3.1 8.69-.18 21.54 0 0-1.7 3.5-6.62.3-5.25-3.41-10.83-13.15-2.29-27.75 3.44-5.81 11.52-15.58 14.32-16.66"/><path id="g" d="M157.14 486.86s1.07 2.08 3.12 2.57c2.02.49 8.48 1.63 11.7 4.83 3.21 3.21 21.15 13.87 33.84 8.44 11.28-4.88 10.57-11.95 6.81-17.01-4.9-6.64-28.61-5.69-31.05-5.03 0 0 12.03-4.13 22.82-1.02 0 0 4.01-2.32.89-7.47-3.14-5.11-11.82-10.19-27.38-3.75-3.15 1.32-16.85 15.42-20.75 18.44"/><path id="h" d="M208.97 529.18s.15 1.6 4.25.92c1.92-.31 8.12-1.25 12.27-.49 4.1.72 24.2.91 31.27-10.08 5.78-8.97-2.27-15.06-6.61-15.06-9.02 0-22.34 8.19-23.9 10.02 0 0 5.85-8.05 17.78-10.38 0 0 1.92-4.54-3.14-6.79-5.07-2.27-15.84-1.19-24.55 12.21-1.77 2.71-5.92 15.2-7.37 19.65"/><path id="i" d="M267.41 498.9s-12.31-1.9-43.97-21.21c0 0 .69-3.6-.71-3.84-1.39-.23-4.41 0-4.41 0s-24.67-19.33-32.12-33.65c-.05-.35-.28-2.1-.69-5.25-2.65-.72-4.13-1.12-4.42-1.2 0 0-13.52-24.35-20.73-50.83.17-.64 1.46-5.82 1.63-6.47 0 0-3.26-1.19-3.72-4.06-.48-2.85-.48-5.47-.48-5.47s2.82 6.68 5.37 4.06c2.56-2.62.25-6.21 12.32-17.68 0 0-9.04 10.06-10.68 20.07-1.64 10.02 3.48 15.03 13.03 10.97 9.53-4.06 11.85-20.53 11.64-26.26-.24-5.73-.47-12.41.93-15.03 1.4-2.63.21-5.03.21-5.03s-3.72 1.45-7.2 2.17c-3.49.71-21.85 2.86-26.53 19.8 0 0 .91-26.49 1.39-32.23 0 0 3.72-5.01 3.94-6.44.25-1.44-2.33-1.66-2.33-1.66s5.38-24.1 14.46-39.62c0 0 3.49-1.22 3.71-2.4.24-1.19-1.38-3.33.48-4.77 0 0 .92 3.58 2.56 2.15 1.61-1.44 4.17-5 13.47-6.45 0 0-14.64 4.07-16.97 11.94 0 0-1.39 3.34 1.39 5.71 2.79 2.41 4.43 4.55 13.27 1.21 8.87-3.34 11.86-13.85 13.5-15.76 1.65-1.9 5.81-5 5.81-6.19 0-1.19-2.78-1.44-3.94-1.68-1.17-.24-6.27-1.9-7.69-2.61-1.4-.73-10.7-1.66-14.42.94 0 0 9.78-13.37 11.41-14.57.46-.05 4.18-.42 4.64-.47 0 0 .45-2.13-.21-3.57 0 0 1.47-1.32 3.72-3.25-.12.24-.22.46-.29.69-1.66 3.67 1.56 4.3 1.56 4.3 7.44-4.62 11.16-2.53 11.16-2.53-1.69-.2-8.02 1.42-11.35 3.58-5.01 3.29-6.71 9.65 1.25 11.65 8.29 2.08 15.94-6.88 17.76-9.32 1.9-2.43 5.13-3.79 6.46-4.31 1.27-.49 1.24-1.96 1.24-1.96-1.75-2.03-8.06-5.63-12.41-6.65-4.21-.98-7.23-.98-9.49-.39 5.82-4.85 12.78-10.33 16.2-12.11.36-.02 2.14-.1 5.36-.24.41-2.28.63-3.55.68-3.81 0 0 2.22-1.09 5.27-2.62-.93 1.56.09 2.86.09 2.86 7.21-.32 10.2 2.38 10.2 2.38-1.17-.85-5.93-1.7-10.04-1.54-4.13.15-9.73 3.85-4.81 9.26 4.93 5.44 16.15 1.73 18.43.73 2.31-1.01 4.96-1.69 6.09-1.51 1.18.19 2.81-1.16 2.81-1.16-.47-2.2-4.24-7.19-7.05-9.73-3.87-3.51-7.14-4.52-9.74-4.37 3.76-1.94 7.44-3.96 9.46-5.28.1-.09.85-.87.95-.96 0 0-5.34-.48-23.26 9.56-.35-.13-3.16-1.09-3.51-1.21 0 0-1.64 2.65-2.33 4.31 0 0-10.23 4.77-26.05 20.27-.14-.16-1.26-1.5-1.4-1.67 0 0-3.27 1.44-3.99 6.23 0 0-5.91 6.97-11.45 14.3.96-3.1 1.2-7.18.06-12.53-.53-2.5-5.76-11.81-7.4-15.09 0 0-1.61.54-2.19 2-.6 1.42-3.78 5.38-6.46 7.36-2.68 2-12.4 12.35-10.15 22.49 2 8.99 10.33 7.59 13.38 1.65 2.56-4.92 5.31-12.91 5.13-14.84 0 0 1.74 6.54-3.54 14.71 0 0 1.1 3.27 5.13 1.6.39-.17.76-.36 1.13-.61-1.02 1.52-1.98 2.96-2.72 4.26-.35.02-3.14.21-3.49.23 0 0-1.13 3.09-.66 7.39 0 0-8.16 15.76-9.1 20.54 0 0-2.55-10.99-14.92-17.19 0 0-3.22-2.39-5.08-4.05-1.87-1.69-4.21-2.16-4.45-1.2-.23.94 0 7.63-1.14 10.72-1.17 3.12-5.37 9.57-4.89 21.74.47 12.17 7.67 17.18 12.57 16.46 4.88-.71 8.37-6.21 7.45-13.6-.93-7.39-.93-11.93-3.51-16.69 0 0 5.13 6.18 5.13 19.08 0 0 .93 3.82 4.21 0-.11.44-.66 2.68-1.64 6.7-2.1.7-3.26 1.09-3.49 1.17 0 0-.7 3.1 1.16 6.21 0 0-1.16 23.37-.72 28.16 0 0-6.95-10.02-16.51-11.71-9.52-1.65-16.98-3.3-18.39-4.03-1.4-.74-1.87 1.9-1.4 2.85.46.96 3.5 4.31 3.5 14.35 0 10 3.03 18.37 5.58 23.62 2.55 5.24 6.75 8.12 10.49 9.3 3.7 1.19 13.24-.24 12.8-7.88-.46-7.62-3.02-13.83-13.29-26.26 0 0 9.32 7.43 13.73 18.4 0 0 1.88 2.12 4.68-2.64 0 0 .69 5.97.69 6.69 0 0-2.32 1.68-2.1 2.61.22.99 3.03 4.56 4.19 5.26 0 0 4.44 18.39 8.39 25.78 0 0-5.59-4.12-15.85-4.53-6.05-.25-14.17 2.62-18.36 2.62-4.18 0-5.72.41-5.58 1.91.21 2.88 4.05 4.14 5.58 7.41 2.31 5 4.63 15.51 12.09 23.16 7.44 7.63 13.26 11.92 18.17 11.69 4.87-.23 12.07-3.36 11.88-9.33-.25-5.96-8.4-17.88-24-25.04 0 0 10.92 2.62 20.7 13.13 0 0 1.87 1.9 3.3-3.83 0 0 2.52 3.56 3 4.31 0 0-2.1 2.63-.48 4.27 1.63 1.69 3.97 2.65 6.08 5.49 2.09 2.87 15.58 23.64 31.86 33.91 0 0-3 2.13-1.39 3.58 1.62 1.42 6.06 2.13 7.93 2.38 0 0 19.56 11.95 31.62 16 .03.38.22 3.44.25 3.82 0 0 14.67.71 16.05 1.19-.1-1.05-.38-4.21-.47-5.27Z"/><path id="j" d="m326.96 529.01-30.03-35.66-27.4-4.83c11.78 9.91 18.32 15.42 19.63 16.53.27-.15.59-.23.97-.23 1.24 0 2.24 1.05 2.24 2.33s-1 2.33-2.24 2.33c-1.28 0-2.28-1.05-2.28-2.33 0-.43.13-.85.3-1.18-1.31-1.06-7.87-6.33-19.69-15.82 4.1 14.81 6.38 23.04 6.83 24.69 0 0 37.18 24.71 39.28 25.78 2.11 1.08 3.99 3.05 9.93-2.49 5.94-5.56 2.46-9.12 2.46-9.12"/><path id="k" d="M312.78 196.01s3.04-4.54 21.18-5.73c10.94-.71 20.72 11.06 16.54 13.37-8.91-2.84-17.93-3.81-17.93-3.81s17.93 4.77 18.16 6.68c.21 1.9-.23 7.88-9.33 7.4-9.06-.47-21.14-7.4-28.62-17.91"/><path id="l" d="M369.12 190.76s2.1.25 2.79 1.2c.7.94 3.03 2.38 5.34 3.34 2.34.95 12.8 6.47 12.59 13.83-.23 7.4-6.76 5.98-9.77 3.12-3.04-2.88-5.83-6.92-6.06-8.38 0 0 .23 4.1 5.58 9.08 0 0-.24 2.64-3.49 2.16-3.27-.48-8.09-2.78-8.69-12.36-.23-3.81.55-10.08 1.71-11.99"/><path id="m" d="M408.79 204.34s1.37.71 1.72 2.11c.33 1.39 2.25 4.07 4.4 6.23 2.14 2.18 10.6 12.24 7.64 20.48-2.77 7.89-10.27 5.38-12.22-.39-1.63-4.78-3.32-10.43-2.92-12.12 0 0-1.58 4.6 2.07 12.71 0 0-1.42 2.77-4.83.71-3.38-2.09-7.41-6.31-3.71-17.2 1.45-4.33 5.69-10.96 7.85-12.53"/><path id="n" d="M409.09 385.06s-1.48.29-1.58 2.35c-.1 2.04.16 7.67-2.22 11.35-2.39 3.67-6.52 23.94-.05 34.64 6.18 10.23 14.85 4.01 16.93-4.47 1.39-5.58-2.63-21.37-3.66-23.64 0 0 6.46 8.8 5.76 20.96 0 0 1.24 4.11 6.46-1.27 4.01-4.11 4.54-15.21-2.1-24.35-3.82-5.26-15.88-12.36-19.54-15.57"/><path id="o" d="M382.39 423.08s-1.78 1.32-2.11 3.39c-.52 3.42-2.53 7.66-5.24 11.27-3.28 4.48-13.72 21.82-6.63 32.61 5.77 8.76 11.18 6.27 15.37 1.96 3.37-3.45 4.91-24.34 3.84-26.68 0 0 3.11 8.7.17 21.55 0 0 1.7 3.5 6.65.3 5.24-3.42 10.8-13.15 2.27-27.76-3.42-5.83-11.55-15.58-14.32-16.64"/><path id="p" d="M434.03 231.41s1.58.54 2.17 1.98c.6 1.44 3.77 5.39 6.45 7.37 2.69 2 12.41 12.36 10.19 22.48-2.03 9-10.36 7.61-13.43 1.67-2.52-4.92-5.27-12.91-5.12-14.85 0 0-1.72 6.54 3.57 14.7 0 0-1.14 3.28-5.14 1.61-4.03-1.67-8.73-7.48-6.12-19.87.53-2.51 5.76-11.82 7.43-15.09"/><path id="q" d="M450.3 487.35s-1.07 2.08-3.12 2.57c-2.01.46-8.46 1.59-11.67 4.83-3.21 3.22-21.19 13.86-33.88 8.4-11.25-4.83-10.52-11.92-6.8-17.01 4.87-6.61 28.6-5.67 31.08-5 0 0-12.02-4.1-22.83-1.04 0 0-4.04-2.3-.91-7.44 3.14-5.15 11.83-10.2 27.39-3.76 3.16 1.33 16.86 15.43 20.74 18.45"/><path id="r" d="M398.03 529.64s-.15 1.62-4.24.95c-1.93-.32-8.14-1.25-12.28-.52-4.15.75-24.21.91-31.32-10.09-5.74-8.94 2.29-15.02 6.65-15.02 9.01 0 22.36 8.17 23.91 10.03 0 0-5.85-8.1-17.79-10.4 0 0-1.94-4.54 3.12-6.79 5.06-2.26 15.87-1.15 24.57 12.22 1.75 2.71 5.93 15.19 7.38 19.62"/><path id="s" d="M415.66 269.06c9.32 1.42 11.87 5.02 13.49 6.45 1.65 1.43.49-1.92.49-1.92 1.29.98.92 2.31.64 3.44-4.86-5.27-14.62-7.97-14.62-7.97m74.73 71.62c-1.4.68-8.85 2.37-18.38 4.04-9.54 1.66-16.52 11.7-16.52 11.7.46-4.78-.71-28.16-.71-28.16 1.87-3.13 1.17-6.21 1.17-6.21-.23-.09-1.4-.49-3.51-1.21-.97-4.01-1.51-6.24-1.62-6.68 3.26 3.83 4.2 0 4.2 0 0-12.89 5.12-19.1 5.12-19.1-2.57 4.79-2.57 9.31-3.49 16.71-.96 7.42 2.56 12.89 7.43 13.61 4.9.71 12.11-4.29 12.55-16.47.49-12.14-3.71-18.61-4.88-21.72-1.13-3.1-.89-9.78-1.13-10.74-.25-.94-2.58-.46-4.45 1.2-1.85 1.65-5.1 4.06-5.1 4.06-12.34 6.19-13.96 16.94-13.96 16.94-1.87-8.83-9.32-20.51-9.32-20.51.47-4.31-.46-7.18-.46-7.18-.4-.09-3.57-.85-3.97-.94-3.17-5.5-3.17-4.95-18.61-25.3-.72-4.78-2.82-5.73-2.82-5.73-.13.16-1.25 1.49-1.39 1.66-15.84-15.51-26.06-20.27-26.06-20.27-.7-1.69-2.33-4.31-2.33-4.31-.34.12-3.12 1.09-3.47 1.21-17.93-10.05-23.28-9.56-23.28-9.56.09.1.81.86.91.96 2.04 1.34 5.75 3.32 9.45 5.26-2.59-.13-5.84.88-9.71 4.38-2.79 2.55-6.55 7.54-7.07 9.72 0 0 1.65 1.34 2.81 1.17 1.17-.17 3.81.5 6.11 1.52 2.3.99 13.5 4.68 18.44-.74 4.94-5.42-.7-9.1-4.81-9.26-4.13-.17-8.89.69-10.02 1.53 0 0 2.93-2.7 10.21-2.37 0 0 .98-1.32.07-2.86 3.01 1.53 5.24 2.62 5.24 2.62.05.26.28 1.53.69 3.82 3.22.14 5 .21 5.36.23 3.46 1.78 10.34 7.28 16.04 12.02-2.3-.73-5.48-.82-10.04.23-4.34 1.04-10.65 4.66-12.4 6.67 0 0-.05 1.45 1.25 1.96 1.32.5 4.56 1.88 6.42 4.3 1.87 2.43 9.5 11.38 17.82 9.33 7.93-2 6.27-8.39 1.2-11.66-3.31-2.12-9.65-3.79-11.33-3.57 0 0 3.72-2.1 11.17 2.51 0 0 3.24-.62 1.57-4.3-.17-.39-.37-.8-.59-1.19 2.42 2.1 4.05 3.52 4.05 3.52-.7 1.45-.48 3.57-.48 3.57.44.05 3.98.42 4.42.47 1.62 1.2 11.65 15.05 11.65 15.05-3.75-2.63-12.13-1.67-13.5-.94-1.4.69-6.53 2.37-7.71 2.61-1.15.24-3.96.48-3.96 1.66 0 1.2 4.22 4.31 5.84 6.22 1.62 1.92 4.64 12.41 13.48 15.76 8.88 3.35 10.49 1.19 13.26-1.21 2.82-2.38 1.43-5.72 1.43-5.72-.11-.3-.23-.58-.36-.88.79.39 1.52.64 1.52.64 4.95 6.88 8.42 16.09 10.75 23.91-2.15-2.31-5.63-4.5-11.33-6.3-5.56-1.74-16.29-.71-19.51.41 0 0-.97 1.6.18 3.03 1.13 1.41 3.92 5.13 4.47 9.07.59 3.97 5.77 18.32 16.42 21.5 10.16 3.04 12.04-6.08 7.84-13.6-2.49-4.52-10.34-11.13-12.37-12 0 0 8.53 3.58 12.73 10.39 0 0 3.44 2.26 4.38-1.46.58 2.86.87 4.67.87 4.67s-2.54.23-2.3 1.68c.2 1.42 3.93 6.45 3.93 6.45.46 5.71 1.39 32.21 1.39 32.21-4.63-16.94-23.04-19.09-26.51-19.81-3.51-.72-7.24-2.15-7.24-2.15s-1.16 2.38.23 5.02c1.43 2.61 1.19 9.31.95 15.02-.24 5.73 2.09 22.2 11.65 26.27 9.54 4.06 14.65-.94 13.01-10.97-1.62-10.05-10.69-20.07-10.69-20.07 12.08 11.48 9.75 15.04 12.33 17.68 2.56 2.63 5.34-4.06 5.34-4.06s0 2.63-.46 5.49c-.46 2.85-3.73 4.06-3.73 4.06.16.65 1.48 5.79 1.65 6.44-7.24 26.49-21.41 50.84-21.41 50.84-.29.08-1.77.48-4.42 1.2-.43 3.15-.67 4.89-.72 5.24-7.46 14.33-32.36 32.95-32.36 32.95s-3-.24-4.41 0c-1.41.23-.7 3.83-.7 3.83C352.16 497 339.8 498.9 339.8 498.9c-.04.53-.41 4.74-.45 5.27 1.39-.48 16.05-1.2 16.05-1.2.02-.38.22-3.43.24-3.81 12.1-4.04 31.64-16 31.64-16 1.87-.25 6.29-.96 7.92-2.39 1.62-1.43-1.38-3.57-1.38-3.57 16.28-10.27 30.01-30.32 32.1-33.17 2.11-2.88 4.44-3.83 6.05-5.49 1.62-1.69-.47-4.3-.47-4.3.47-.72 3.04-4.32 3.04-4.32 1.41 5.75 3.25 3.83 3.25 3.83 9.78-10.5 20.71-13.13 20.71-13.13-15.59 7.16-23.74 19.08-23.96 25.07-.23 5.99 6.97 9.06 11.88 9.32 4.86.23 10.71-4.08 18.15-11.72 7.44-7.62 9.77-18.13 12.06-23.14 1.55-3.28 5.38-4.56 5.62-7.4.12-1.49-1.42-1.89-5.62-1.89-4.16 0-12.31-2.9-18.38-2.65-10.25.41-15.82 4.54-15.82 4.54 3.99-7.39 9.11-25.78 9.11-25.78 1.16-.73 3.95-4.29 4.15-5.25.26-.95-2.07-2.63-2.07-2.63 0-.7.69-6.69.69-6.69 2.82 4.79 4.66 2.64 4.66 2.64 4.44-11 13.75-18.37 13.75-18.37-10.25 12.39-12.83 18.59-13.28 26.26-.47 7.63 9.06 9.07 12.8 7.86 3.72-1.2 7.91-4.06 10.47-9.32 2.55-5.24 5.56-13.6 5.56-23.61 0-10.04 3.06-13.37 3.53-14.33.45-.96 0-3.58-1.41-2.85"/><path id="t" d="M322.95 521.3c5.88-3.9 10.35-6.86 10.35-6.86.45-1.65 2.72-9.88 6.79-24.7-11.8 9.48-18.36 14.75-19.67 15.81.18.35.32.75.32 1.2 0 1.28-1.05 2.33-2.26 2.33-1.3 0-2.31-1.05-2.31-2.33 0-1.32 1.01-2.36 2.31-2.36.32 0 .64.09.92.25 1.31-1.1 7.86-6.61 19.64-16.52l-27.39 4.83-6.35 7.53c9.41 11.11 15.29 18.05 17.65 20.82Z"/><path id="u" d="M285.8 523.64a999.9 999.9 0 0 0-4.16 4.94s-3.5 3.58 2.43 9.12c5.94 5.54 7.85 3.57 9.94 2.51.58-.31 3.87-2.4 8.32-5.33-2.21-1.5-7.72-5.24-16.53-11.24Z"/><path id="v" d="M332.34 518.26s5.6 3.4 16.6 4.46c-.19.55-1.73 5-1.92 5.56 0 0-14.31-1.62-17.28-4.13-.03-.19-.15-1.14-.37-2.85 1.58-1.62 2.57-2.63 2.97-3.04Z"/><path id="w" d="m278.42 518.78 6.11 3.41c-11 4.72-17.11 7.34-18.34 7.86 0 0-2.61.73-4.16-.16-1.59-.88-3.15-4.28-3.15-4.28s11.52-3.05 19.54-6.83"/><path id="x" d="M263.46 323.85c4.52 0 8.18 3.76 8.18 8.39 0 .01.02.02.04.05v57.42c0 6.73 5.33 12.17 11.96 12.17 6.65 0 12.02-5.44 12.02-12.17v-57.42c.02.08.03.13.03.14 0-4.84 3.79-8.75 8.52-8.75 4.7 0 8.5 3.91 8.5 8.75 0-.01-.01-.06-.02-.14v57.42c0 6.73 5.36 12.17 11.99 12.17 6.6 0 11.99-5.44 11.99-12.17v-57.42c-.03.04-.05.06-.05.06 0-4.74 3.75-8.61 8.37-8.61 4.6 0 8.34 3.87 8.34 8.61l.03-.06v57.42c0 6.73 5.36 12.17 12 12.17 6.63 0 11.98-5.44 11.98-12.17v-64.1h.06c0-13.81-10.95-25.05-24.44-25.05h-36.54v-11.09c0-6.74-5.36-12.18-11.98-12.18-6.64 0-11.96 5.44-11.96 12.18v11.09h-36.56c-12.72 0-23.19 9.97-24.35 22.71-.14.75-.22 1.55-.22 2.34v64.1c0 6.73 5.38 12.17 11.98 12.17 6.6 0 11.99-5.44 11.99-12.17v-57.42c2.41-5.63 5.13-8.44 8.14-8.44Z"/></defs><use xlink:href="#a" fill="#004098"/><use xlink:href="#a" fill-opacity="0" stroke="#000" stroke-opacity="0"/><use xlink:href="#b" fill="#004098"/><use xlink:href="#b" fill-opacity="0" stroke="#000" stroke-opacity="0"/><use xlink:href="#c" fill="#004098"/><use xlink:href="#c" fill-opacity="0" stroke="#000" stroke-opacity="0"/><use xlink:href="#d" fill="#004098"/><use xlink:href="#d" fill-opacity="0" stroke="#000" stroke-opacity="0"/><use xlink:href="#e" fill="#004098"/><use xlink:href="#e" fill-opacity="0" stroke="#000" stroke-opacity="0"/><use xlink:href="#f" fill="#004098"/><use xlink:href="#f" fill-opacity="0" stroke="#000" stroke-opacity="0"/><use xlink:href="#g" fill="#004098"/><use xlink:href="#g" fill-opacity="0" stroke="#000" stroke-opacity="0"/><use xlink:href="#h" fill="#004098"/><use xlink:href="#h" fill-opacity="0" stroke="#000" stroke-opacity="0"/><use xlink:href="#i" fill="#004098"/><use xlink:href="#i" fill-opacity="0" stroke="#000" stroke-opacity="0"/><use xlink:href="#j" fill="#004098"/><use xlink:href="#j" fill-opacity="0" stroke="#000" stroke-opacity="0"/><use xlink:href="#k" fill="#004098"/><use xlink:href="#k" fill-opacity="0" stroke="#000" stroke-opacity="0"/><use xlink:href="#l" fill="#004098"/><use xlink:href="#l" fill-opacity="0" stroke="#000" stroke-opacity="0"/><use xlink:href="#m" fill="#004098"/><use xlink:href="#m" fill-opacity="0" stroke="#000" stroke-opacity="0"/><use xlink:href="#n" fill="#004098"/><use xlink:href="#n" fill-opacity="0" stroke="#000" stroke-opacity="0"/><use xlink:href="#o" fill="#004098"/><use xlink:href="#o" fill-opacity="0" stroke="#000" stroke-opacity="0"/><use xlink:href="#p" fill="#004098"/><use xlink:href="#p" fill-opacity="0" stroke="#000" stroke-opacity="0"/><use xlink:href="#q" fill="#004098"/><use xlink:href="#q" fill-opacity="0" stroke="#000" stroke-opacity="0"/><use xlink:href="#r" fill="#004098"/><use xlink:href="#r" fill-opacity="0" stroke="#000" stroke-opacity="0"/><use xlink:href="#s" fill="#004098"/><use xlink:href="#s" fill-opacity="0" stroke="#000" stroke-opacity="0"/><use xlink:href="#t" fill="#004098"/><use xlink:href="#t" fill-opacity="0" stroke="#000" stroke-opacity="0"/><use xlink:href="#u" fill="#004098"/><use xlink:href="#u" fill-opacity="0" stroke="#000" stroke-opacity="0"/><use xlink:href="#v" fill="#004098"/><use xlink:href="#v" fill-opacity="0" stroke="#000" stroke-opacity="0"/><use xlink:href="#w" fill="#004098"/><use xlink:href="#w" fill-opacity="0" stroke="#000" stroke-opacity="0"/><use xlink:href="#x" fill="#004098"/><use xlink:href="#x" fill-opacity="0" stroke="#000" stroke-opacity="0"/></svg>